<?xml version="1.0" encoding="utf-8"?>
<!-- Generator: Adobe Illustrator 25.2.3, SVG Export Plug-In . SVG Version: 6.00 Build 0)  -->
<svg version="1.1" id="Layer_1" xmlns="http://www.w3.org/2000/svg" xmlns:xlink="http://www.w3.org/1999/xlink" x="0px" y="0px"
	 viewBox="0 0 640 480" style="enable-background:new 0 0 640 480;" xml:space="preserve">
<style type="text/css">
	.st0{fill:none;stroke:#000000;stroke-width:16;stroke-miterlimit:10;}
	.st1{fill:none;stroke:#000000;stroke-width:5;stroke-miterlimit:10;}
</style>
<g>
	<path d="M110.16,57.55c22.54-13.51,45.03-27.14,67.57-40.69c0.02,104.59-0.07,209.18,0.04,313.78
		c-10.29,6.26-20.65,12.44-30.96,18.68c-12.39,7.38-24.64,15-37.1,22.24c0.12-102.48,0.01-204.98,0.05-307.46
		C109.91,61.93,109.27,59.59,110.16,57.55"/>
	<path d="M177.73,16.86c99.62-0.03,199.25,0,298.87-0.01c6.13-0.08,12.2,2.52,16.45,6.93c3.99,4.17,6.39,9.88,6.34,15.68
		c0.05,15.71-0.01,31.42,0.03,47.13c0.06,81.32,0.06,162.64,0,243.97c-107.21,0.19-214.43,0.01-321.65,0.09
		C177.66,226.04,177.75,121.45,177.73,16.86 M322.68,83.96c-13.68,1.85-27.24,7.13-37.32,16.78c-8.91,8.51-14.62,20.41-15.08,32.77
		c13.59-0.02,27.17,0.06,40.75-0.04c0.44-5.15,2.3-10.35,6.02-14.05c4.06-4.24,10.1-6.04,15.85-5.97
		c5.83-0.14,12.24,0.99,16.51,5.28c3.14,3.02,4.3,7.52,4.32,11.76c-0.06,4.59,0.48,9.43-1.56,13.72c-2.16,5.03-7.27,8.03-12.37,9.38
		c-8.02,2.08-16.36,1.05-24.54,1.31c-0.01,9.68-0.06,19.36,0.03,29.05c6.34,0.14,12.68-0.16,19.01,0.24
		c6.89,0.61,14.09,2.3,19.43,6.96c4.37,3.76,6.39,9.68,6.2,15.35c0.14,6.14,0.11,12.74-3.39,18.07c-3.7,5.93-10.75,8.79-17.48,9.38
		c-7.51,0.63-15.71-0.24-21.85-4.99c-4.77-3.6-7.51-9.35-8.23-15.2c-13.58-0.01-27.15-0.01-40.73-0.01
		c0.7,6.12,2.16,12.17,4.65,17.81c4.32,10.15,12.2,18.67,21.85,23.97c11.78,6.65,25.47,8.98,38.85,9.36
		c15.95,0.43,32.41-2.46,46.23-10.77c9.8-5.82,18.06-14.79,21.5-25.81c2.58-7.72,1.65-15.93,1.78-23.92
		c0.12-8.23-3.13-16.43-8.82-22.37c-7.44-8.07-17.96-12.57-28.55-14.73c11.73-3,23.25-10.05,28.52-21.33
		c2.86-5.89,2.1-12.56,2.18-18.88c0.08-6.93-1.76-13.89-5.48-19.75c-5.86-9.36-15.54-15.73-25.78-19.42
		C351.65,83.07,336.9,82.16,322.68,83.96"/>
	<path class="st0" d="M499.43,86.58c10.29-0.03,20.59,0,30.89-0.01c0.01,125.52,0.02,251.04-0.01,376.57
		c-119.18-0.01-238.35-0.01-357.53,0c-4.2,0.12-8.54-0.09-12.41-1.91c-8.06-3.46-13.65-11.9-13.54-20.69
		c-0.02-30.41,0-60.81-0.01-91.21c10.31-6.25,20.66-12.42,30.96-18.68c107.22-0.08,214.44,0.1,321.65-0.09
		C499.48,249.22,499.48,167.9,499.43,86.58"/>
</g>
<path class="st1" d="M240.9,361.54c-0.02,21.96,0,43.92-0.01,65.88c4.72,0.01,9.43,0.01,14.15-0.01
	c0.06-14.65-0.12-29.31,0.08-43.96c3.79,14.67,7.74,29.3,11.55,43.97c5.19,0.01,10.38,0.01,15.56-0.01
	c3.52-14.04,7.47-27.97,10.74-42.06c0.42,3.54,0.23,7.11,0.27,10.66c0.01,10.48-0.01,20.96,0.02,31.44
	c5.2-0.02,10.41-0.01,15.61-0.01c0-21.96,0.01-43.92,0-65.88c-6.67-0.03-13.34,0.01-20.01-0.02c-4.67,17.64-9.31,35.3-14.01,52.93
	c-4.33-17.67-8.81-35.3-13.25-52.94C254.71,361.56,247.8,361.52,240.9,361.54"/>
<path class="st1" d="M317.31,427.4c5.47,0.03,10.94,0.01,16.41,0.01c1.25-4.8,2.41-9.62,3.69-14.41c6.57,0.05,13.15,0.03,19.72,0.01
	c1.37,4.79,2.72,9.58,4.03,14.39c5.58,0.04,11.18,0.01,16.77,0.03c-6.56-21.92-13.14-43.84-19.82-65.72
	c-7.24-0.42-14.65-0.05-21.96-0.18C329.87,383.49,323.61,405.46,317.31,427.4"/>
<path class="st1" d="M384.75,361.55c6.21,10.35,12.42,20.7,18.63,31.05c-6.93,11.61-13.85,23.25-20.83,34.84
	c6.05-0.02,12.1-0.01,18.14-0.01c4.2-8.23,8.56-16.38,12.75-24.62c0.34,0.4,0.65,0.85,0.92,1.32c3.92,7.78,7.95,15.49,11.87,23.28
	c6.19,0.03,12.39,0.03,18.59,0.01c-6.94-12.06-13.87-24.13-20.78-36.21c6.2-9.9,12.49-19.76,18.7-29.66
	c-5.8,0.01-11.61-0.01-17.41,0c-3.89,6.95-7.43,14.1-11.52,20.93c-3.66-6.99-7.36-13.96-11.07-20.92
	C396.73,361.54,390.74,361.52,384.75,361.55"/>
<path class="st1" d="M347.09,372.42c2.24,9.46,4.58,18.9,6.84,28.36c-4.5,0-9,0.02-13.5-0.01
	C342.61,391.3,344.84,381.86,347.09,372.42"/>
</svg>
