<?xml version="1.0" encoding="utf-8"?>
<!-- Generator: Adobe Illustrator 25.2.3, SVG Export Plug-In . SVG Version: 6.00 Build 0)  -->
<svg version="1.1" id="Layer_1" xmlns="http://www.w3.org/2000/svg" xmlns:xlink="http://www.w3.org/1999/xlink" x="0px" y="0px"
	 viewBox="0 0 640 480" style="enable-background:new 0 0 640 480;" xml:space="preserve">
<style type="text/css">
	.st0{fill:none;stroke:#000000;stroke-width:16;stroke-miterlimit:10;}
	.st1{fill:none;stroke:#000000;stroke-width:5;stroke-miterlimit:10;}
</style>
<g>
	<path d="M109,57.06c22.52-13.9,45.22-27.47,67.96-41.07c0.37,105.02-0.21,210.01,0.27,315.03c-10.57,5.74-20.66,12.35-31.01,18.49
		c-12.44,7.36-24.69,15.09-37.19,22.34C108.96,266.92,109.03,161.99,109,57.06"/>
	<path d="M176.95,15.99c100.1-0.09,200.2-0.03,300.3-0.03c11.24-0.27,22.15,9.23,22.46,20.69c0.55,16.35-0.06,32.72,0.18,49.07
		c0.37,81.65,0.21,163.29,0.09,244.94c-107.59,0.55-215.18-0.24-322.76,0.37C176.74,226,177.32,121.01,176.95,15.99 M248.33,86.18
		c-0.03,58.24,0.12,116.51-0.06,174.75c12.56,0.12,25.12,0.12,37.71,0c0-39.05,0.27-78.13-0.21-117.18
		c10.36,38.93,20.84,77.83,30.68,116.88c13.75,0.79,27.53,0.21,41.28,0.37c10.2-37.43,19.71-75.11,29.3-112.69
		c0.09,37.55-0.06,75.11,0.03,112.69c13.75,0.06,27.47-0.09,41.19,0.15c0.12-58.33,0.27-116.69-0.06-175.02
		c-17.45,0.12-34.93,0.21-52.37-0.06c-12.83,46.72-24.99,93.62-37.22,140.5c-11.83-46.81-23.28-93.75-35.42-140.5
		C284.91,86.36,266.63,86.18,248.33,86.18"/>
	<path class="st0" d="M499.9,85.72c10.36,0,20.72,0,31.08,0.06c0.03,126.1,0,252.21,0.03,378.28
		c-120.97-0.28-241.91,0.09-362.85-0.18c-12.25-0.18-23.31-11.46-21.97-23.92c0-30.13,0-60.29,0.03-90.45
		c10.36-6.14,20.44-12.74,31.01-18.49c107.59-0.61,215.18,0.18,322.76-0.37C500.11,249.01,500.27,167.36,499.9,85.72"/>
</g>
<path class="st1" d="M273.27,361.64c-6.33,22.15-12.53,44.34-19.04,66.43h16.71c1.19-4.77,2.38-9.53,3.57-14.3
	c6.66-0.15,13.29-0.15,19.95-0.06c1.25,4.71,2.51,9.41,3.73,14.12c5.71,0.18,11.4,0.24,17.11,0.27
	c-6.57-22.12-13.29-44.21-19.92-66.34C287.99,361.73,280.63,361.7,273.27,361.64"/>
<path class="st1" d="M308.89,361.76c6.9,13.08,14.02,26.06,20.44,39.36c1.4,8.89,0.31,17.97,0.61,26.92
	c5.53,0,11.09-0.03,16.62-0.03c1.04-10.91-2.81-23.01,3.42-32.79c5.99-11.15,11.43-22.61,17.85-33.52c-5.81,0-11.61,0.03-17.39,0.12
	c-3.88,9.26-7.82,18.45-11.8,27.65c-4.31-9.14-8.07-18.49-12.16-27.71C320.63,361.73,314.76,361.73,308.89,361.76"/>
<path class="st1" d="M380.46,361.79c-6.17,22.12-12.53,44.18-18.94,66.25c5.53,0,11.09,0.03,16.62,0.06
	c1.22-4.7,2.44-9.41,3.58-14.12c6.6-0.43,13.2-0.43,19.83-0.28c1.44,4.58,2.66,9.26,3.79,13.96c5.77,0.43,11.55,0.46,17.36,0.37
	c-6.91-22.06-13.35-44.24-20.01-66.4C395.24,361.7,387.85,361.73,380.46,361.79"/>
<path d="M284.23,374.08c2.54,8.95,4.71,18.03,6.72,27.1h-13.11C279.65,392.07,281.85,383.06,284.23,374.08"/>
<path d="M391.61,372.91c2.26,9.44,4.22,18.98,6.75,28.36c-4.52-0.12-9.08-0.24-13.6-0.33C387.24,391.64,389.22,382.23,391.61,372.91
	"/>
</svg>
